<svg width="128" height="128" viewBox="0 0 128 128" xmlns="http://www.w3.org/2000/svg">
  <defs>
    <radialGradient id="bgGradient" cx="50%" cy="30%" r="70%">
      <stop offset="0%" style="stop-color:#69b7ff;stop-opacity:0.3" />
      <stop offset="100%" style="stop-color:#1a1f2e;stop-opacity:1" />
    </radialGradient>
    <linearGradient id="strokeGradient" x1="0%" y1="0%" x2="100%" y2="100%">
      <stop offset="0%" style="stop-color:#69b7ff" />
      <stop offset="50%" style="stop-color:#c792ea" />
      <stop offset="100%" style="stop-color:#89ddff" />
    </linearGradient>
  </defs>
  
  <!-- Background -->
  <rect width="128" height="128" rx="16" fill="url(#bgGradient)"/>
  
  <!-- Blueprint grid pattern -->
  <defs>
    <pattern id="grid" width="8" height="8" patternUnits="userSpaceOnUse">
      <path d="M 8 0 L 0 0 0 8" fill="none" stroke="#69b7ff" stroke-width="0.3" opacity="0.4"/>
    </pattern>
  </defs>
  <rect width="128" height="128" fill="url(#grid)"/>
  
  <!-- Central moon/circle -->
  <circle cx="64" cy="48" r="20" fill="none" stroke="url(#strokeGradient)" stroke-width="2.5"/>
  <circle cx="64" cy="48" r="15" fill="none" stroke="#69b7ff" stroke-width="1.5" opacity="0.6"/>
  <circle cx="64" cy="48" r="8" fill="#69b7ff" opacity="0.8"/>
  
  <!-- Code brackets -->
  <path d="M 32 72 L 24 80 L 32 88" fill="none" stroke="#c792ea" stroke-width="3" stroke-linecap="round"/>
  <path d="M 96 72 L 104 80 L 96 88" fill="none" stroke="#c792ea" stroke-width="3" stroke-linecap="round"/>
  
  <!-- Theme swatches -->
  <rect x="40" y="96" width="8" height="8" rx="2" fill="#c3e88d"/>
  <rect x="52" y="96" width="8" height="8" rx="2" fill="#f9e79f"/>
  <rect x="64" y="96" width="8" height="8" rx="2" fill="#f78c6c"/>
  <rect x="76" y="96" width="8" height="8" rx="2" fill="#89ddff"/>
  
  <!-- Subtle highlight -->
  <circle cx="58" cy="42" r="3" fill="#ffffff" opacity="0.3"/>
</svg>
